USFL
nRows=152
nColumns=2
inDegrees=yes
endheader
time	soleus_r	
2.64819	 27.164584	
2.71976	 27.149394	
2.79133	 27.270338	
2.8629	 27.393041	
2.93448	 27.363036	
3.00605	 27.245878	
3.07762	 27.221956	
3.14919	 27.088352	
3.22077	 27.058403	
3.29234	 26.906857	
3.36391	 26.889366	
3.43548	 26.915380	
3.50706	 27.024807	
3.57863	 26.938325	
3.6502	 26.863039	
3.72177	 26.959707	
3.79335	 26.858598	
3.86492	 26.918632	
3.93649	 26.905412	
4.00806	 26.696179	
4.07964	 26.779451	
4.15121	 26.776035	
4.22278	 26.766859	
4.29435	 26.714861	
4.36593	 26.787769	
4.4375	 26.663063	
4.50907	 26.658478	
4.58065	 26.779778	
4.65222	 26.853029	
4.72379	 26.841115	
4.79536	 26.829222	
4.86694	 27.005513	
4.93851	 27.262691	
5.01008	 22.936212	
5.08165	 18.987029	
5.15323	 22.518552	
5.2248	 22.595063	
5.29637	 22.490056	
5.36794	 22.175639	
5.43952	 22.304530	
5.51109	 22.188445	
5.58266	 22.460832	
5.65423	 22.180853	
5.72581	 21.830550	
5.79738	 21.273866	
5.86895	 22.226494	
5.94052	 22.073944	
6.0121	 22.061858	
6.08367	 21.604086	
6.15524	 21.262357	
6.22681	 23.010073	
6.29839	 19.795854	
6.36996	 20.918096	
6.44153	 22.610843	
6.5131	 23.422829	
6.58468	 25.111178	
6.65625	 23.932956	
6.72782	 24.506759	
6.7994	 23.170205	
6.87097	 22.951650	
6.94254	 22.942835	
7.01411	 23.933879	
7.08569	 23.660262	
7.15726	 23.612953	
7.22883	 23.672311	
7.3004	 23.706639	
7.37198	 23.852303	
7.44355	 23.897638	
7.51512	 24.300288	
7.58669	 23.341121	
7.65827	 24.982501	
7.72984	 25.491563	
7.80141	 23.360931	
7.87298	 22.258020	
7.94456	 22.442124	
8.01613	 22.409721	
8.0877	 22.655141	
8.15927	 22.520069	
8.23085	 22.622257	
8.30242	 22.610744	
8.37399	 22.640782	
8.44556	 22.763562	
8.51714	 22.418256	
8.58871	 22.124960	
8.66028	 21.916781	
8.73185	 21.616275	
8.80343	 21.913186	
8.875	 22.026082	
8.94657	 22.336617	
9.01815	 22.182615	
9.08972	 22.102201	
9.16129	 21.890731	
9.23286	 21.775936	
9.30444	 21.829182	
9.37601	 21.611066	
9.44758	 21.877612	
9.51915	 22.215346	
9.59073	 22.136260	
9.6623	 21.877559	
9.73387	 22.196203	
9.80544	 22.163376	
9.87702	 22.169936	
9.94859	 22.098418	
10.0202	 22.021185	
10.0917	 22.011044	
10.1633	 21.959496	
10.2349	 22.081652	
10.3065	 22.034067	
10.378	 22.111476	
10.4496	 22.044533	
10.5212	 21.864548	
10.5927	 21.941640	
10.6643	 21.883199	
10.7359	 22.112142	
10.8075	 21.529782	
10.879	 20.958677	
10.9506	 20.943094	
11.0222	 20.945885	
11.0937	 21.031619	
11.1653	 20.967770	
11.2369	 20.731347	
11.3085	 25.107249	
11.38	 25.469119	
11.4516	 25.388895	
11.5232	 25.485648	
11.5948	 25.643846	
11.6663	 25.467699	
11.7379	 26.261849	
11.8095	 25.612496	
11.881	 25.710460	
11.9526	 30.312474	
12.0242	 30.284437	
12.0958	 30.642429	
12.1673	 30.551039	
12.2389	 30.637430	
12.3105	 30.784953	
12.3821	 30.667086	
12.4536	 30.489524	
12.5252	 30.245413	
12.5968	 30.083549	
12.6683	 29.980156	
12.7399	 30.116697	
12.8115	 29.626005	
12.8831	 29.888291	
12.9546	 30.144365	
13.0262	 30.213215	
13.0978	 30.402493	
13.1694	 30.487554	
13.2409	 30.679807	
13.3125	 30.691861	
13.3841	 30.563381	
13.4556	 30.476947	
